<svg xmlns="http://www.w3.org/2000/svg" viewBox="0 0 400 400"><defs><style>.cls-1{fill:#101719;}.cls-2{fill:#fff;}.cls-3{fill:#c97c2c;}.cls-4,.cls-5{fill:#009ee2;}.cls-5{font-size:17.22px;font-family:ArialNarrow-Bold, Arial;font-weight:700;letter-spacing:0.05em;}.cls-6{letter-spacing:0.05em;}.cls-7{letter-spacing:0.04em;}</style></defs><g id="Layer_5" data-name="Layer 5"><rect class="cls-1" width="400" height="400"/></g><g id="text"><g id="lifestyles"><path class="cls-2" d="M47.64,236.38q-14,1.49-28,3.26c.29-2.36.43-3.53.72-5.89l-4.83-38.59c-.88-2.21-1.32-3.31-2.21-5.52,5.79-.74,8.69-1.09,14.49-1.76-.41,3-.62,4.42-1,7.37q1.92,16.26,3.83,32.54l1.21.94c4.48-.52,6.72-.78,11.2-1.26,2.93-1.34,4.39-2,7.33-3.32C49.26,229,48.71,231.49,47.64,236.38Z"/><path class="cls-2" d="M55.54,235.57c.34-2.36.52-3.53.86-5.88Q54.48,210.34,52.54,191c-.82-2.24-1.23-3.35-2.06-5.58,5.65-.57,8.48-.85,14.14-1.36-.39,2.35-.58,3.52-1,5.87l3.57,38.72,2,5.6C63.73,234.75,61,235,55.54,235.57Z"/><path class="cls-2" d="M103.92,189.65c-5.34.35-8,.54-13.34.93l-.69.77.75,10.06.79.66c2.5-.19,3.75-.28,6.25-.45,2.15-.87,3.23-1.31,5.4-2.17l.8,12.21-5.6-1.42c-2.48.17-3.73.26-6.21.45l-.68.77,1,13.64c.94,2.82,1.4,4.23,2.33,7.05-5.61.41-8.42.63-14,1.1.38-2.35.58-3.52,1-5.86Q80.07,208,78.49,188.64c-.78-2.25-1.17-3.38-2-5.62q14.88-1.26,29.81-2.18c1.76,4.22,2.64,6.33,4.38,10.55Z"/><path class="cls-2" d="M147,229.27q-14.79.54-29.56,1.4l1.12-5.84L116.36,186c-.73-2.27-1.09-3.4-1.82-5.66q14.91-.89,29.84-1.42c1.66,4.26,2.48,6.39,4.11,10.66l-6.75-1.91c-5.34.21-8,.33-13.36.58l-.7.76c.17,3.45.25,5.18.42,8.63l.77.68,6.26-.29,5.46-2c.2,4.89.3,7.34.49,12.23l-5.56-1.56-6.23.28-.7.76c.23,4.75.35,7.12.58,11.87l1.14,1c5.08-.24,7.62-.35,12.7-.55,3-1.13,4.52-1.69,7.54-2.8C149.11,222.06,148.4,224.47,147,229.27Z"/><path class="cls-2" d="M178,228.46c-7.94.13-11.9.21-19.84.44-1.72-4.7-2.59-7.05-4.34-11.75,3,.91,4.49,1.37,7.48,2.3,4-.11,6-.15,10-.23l2.88-1.5,1.4-2.9c0-1.87,0-2.81-.07-4.68-1-1-1.56-1.49-2.61-2.47-4.41-.93-6.62-1.39-11-2.28-2.86-2.66-4.29-4-7.18-6.64-.13-4.32-.2-6.48-.33-10.79,3.74-3.87,5.63-5.79,9.42-9.63,7.76-.19,11.65-.26,19.41-.34,1.54,4.3,2.31,6.45,3.83,10.76l-6.7-2.09c-3.86.05-5.79.09-9.65.16l-2.94,1.5-1.42,2.92.07,2.88,2.64,2.46c4.44.91,6.66,1.38,11.09,2.33,2.84,2.7,4.25,4.05,7.06,6.76,0,5.33.07,8,.11,13.32C183.55,222.77,181.69,224.66,178,228.46Z"/><path class="cls-2" d="M224.86,187.46l-6.68-.1-.75.71q-.19,16.94-.4,33.85c.84,2.6,1.26,3.9,2.09,6.5-6.06-.08-9.09-.1-15.15-.12.87-2.59,1.31-3.88,2.19-6.47L206.3,188l-.73-.73h-6.68c-3.12,1-4.67,1.52-7.78,2.55,1.6-4.76,2.41-7.14,4-11.9q16.8,0,33.6.27c1.55,4.78,2.32,7.17,3.84,12C229.5,189.06,228,188.52,224.86,187.46Z"/><path class="cls-2" d="M269.9,185.3c-5.36,9.41-8,14.12-13.2,23.58l-.55,14c.77,2.62,1.15,3.93,1.91,6.56-6.05-.25-9.08-.35-15.14-.53.94-2.57,1.42-3.85,2.37-6.42.16-5.32.25-8,.41-13.31q-6.18-12.65-12.61-25.19c-1.58-2.34-2.38-3.51-4-5.84,6,.11,9,.19,14.93.36.24,2,.36,3,.59,5.06,2.67,5.56,4,8.34,6.59,13.91.13.58.2.87.32,1.45l.42-1.43c3-5.37,4.51-8.05,7.55-13.4l1-5c5.52.22,8.28.35,13.8.62C272.52,182,271.64,183.07,269.9,185.3Z"/><path class="cls-2" d="M302.74,232q-14-1-28.1-1.74l1.75-5.67q1-19.42,2.05-38.83c-.47-2.34-.71-3.5-1.19-5.83,5.82.3,8.73.46,14.55.82l-2.3,7.08-2,32.7,1,1.14c4.5.28,6.75.43,11.24.74,3.12-.8,4.68-1.19,7.8-2C305.63,225,304.66,227.34,302.74,232Z"/><path class="cls-2" d="M340.15,235.14q-14.73-1.45-29.5-2.58c.76-2.26,1.14-3.38,1.89-5.63l3-38.77c-.41-2.34-.62-3.52-1-5.86q14.91,1.14,29.79,2.6c1.07,4.44,1.59,6.67,2.64,11.11l-6.44-2.8c-5.33-.5-8-.75-13.32-1.2l-.81.65c-.29,3.44-.44,5.16-.73,8.61l.67.78c2.5.21,3.75.32,6.25.55l5.68-1.28-1.15,12.19c-2.12-.93-3.18-1.39-5.31-2.3-2.48-.23-3.73-.34-6.21-.55l-.79.65-1,11.84,1,1.17c5.06.44,7.6.67,12.66,1.15,3.14-.71,4.71-1.07,7.85-1.76C343.22,228.28,342.19,230.56,340.15,235.14Z"/><path class="cls-2" d="M371,238.5c-7.89-.95-11.84-1.39-19.74-2.23-1.09-4.89-1.63-7.34-2.74-12.23,2.85,1.31,4.28,2,7.12,3.28,4,.44,6,.66,10,1.12l3.06-1.1,1.79-2.69L371,220c-.89-1.12-1.35-1.68-2.25-2.8-4.25-1.51-6.38-2.25-10.65-3.73-2.48-3-3.73-4.53-6.23-7.54.44-4.3.67-6.45,1.11-10.75,4.23-3.32,6.36-5,10.64-8.27,7.73.85,11.59,1.31,19.31,2.26,1,4.47,1.43,6.71,2.36,11.18l-6.37-3c-3.84-.46-5.76-.69-9.6-1.13l-3.12,1.09-1.8,2.7c-.12,1.14-.19,1.71-.32,2.86l2.29,2.79c4.29,1.51,6.43,2.27,10.7,3.8,2.46,3.06,3.68,4.59,6.1,7.65-.67,5.29-1,7.93-1.67,13.22C377.31,233.6,375.21,235.22,371,238.5Z"/></g><g id="intimate_gel" data-name="intimate gel"><path class="cls-2" d="M102.56,254.1l7.45-13c1.27.72,1.92,1.08,3.2,1.78L106,256C104.64,255.28,103.94,254.89,102.56,254.1Z"/><path class="cls-2" d="M110.92,258.61c2.72-5.36,4.08-8,6.81-13.4,1.27.64,1.9,1,3.18,1.58.92,4.9,1.46,7.36,2.72,12.29l4-9.21c1.24.54,1.86.8,3.11,1.32L125,265.08c-1.46-.6-2.19-.91-3.64-1.54-1.31-4.85-1.89-7.28-2.87-12.11l-4.28,8.82C112.9,259.61,112.23,259.28,110.92,258.61Z"/><path class="cls-2" d="M134.49,268.71c1.67-4.71,2.5-7.06,4.16-11.77-2-.72-3-1.1-5.06-1.88l.92-2.37c5.32,2.06,8,3,13.43,4.6l-.72,2.44c-2.06-.61-3.08-.94-5.12-1.61L138.18,270C136.7,269.49,136,269.23,134.49,268.71Z"/><path class="cls-2" d="M147.53,272.82c1.6-5.8,2.41-8.7,4-14.49,1.38.38,2.07.56,3.46.92-1.49,5.82-2.23,8.74-3.72,14.56C149.77,273.43,149,273.23,147.53,272.82Z"/><path class="cls-2" d="M156.43,275.06c1.33-5.87,2-8.8,3.33-14.66,2.09.47,3.14.69,5.24,1.11.48,4.27.75,6.41,1.37,10.69,2-3.8,3-5.72,4.95-9.57,2.12.34,3.18.49,5.31.77-.77,6-1.16,8.94-1.93,14.91-1.43-.19-2.14-.29-3.57-.5l1.74-11.71c-2.12,4.47-3.22,6.7-5.51,11.11-1.47-.24-2.21-.37-3.67-.65-.62-4.93-.88-7.4-1.32-12.33-1,4.64-1.44,7-2.41,11.59C158.55,275.53,157.84,275.38,156.43,275.06Z"/><path class="cls-2" d="M197.33,279.92c-1.68,0-2.52,0-4.19-.1-.62-1.38-.92-2.08-1.52-3.47-3-.13-4.51-.22-7.51-.47-.73,1.31-1.1,2-1.86,3.26-1.63-.15-2.45-.23-4.08-.41,3.63-5.65,5.33-8.52,8.52-14.31,1.5.11,2.26.16,3.77.24C193,270.81,194.34,273.87,197.33,279.92Zm-6.81-6.16c-.91-2.28-1.35-3.42-2.2-5.71-1.12,2.16-1.69,3.24-2.86,5.39C187.48,273.59,188.5,273.66,190.52,273.76Z"/><path class="cls-2" d="M203.33,279.91c-.09-5-.13-7.49-.21-12.49-2.13,0-3.19,0-5.32,0l0-2.55c5.61.07,8.42,0,14-.37.06,1,.1,1.52.16,2.54-2.11.14-3.17.19-5.29.27l.45,12.48C205.63,279.86,204.87,279.89,203.33,279.91Z"/><path class="cls-2" d="M217,279.21l-1.3-15c5.23-.45,7.84-.77,13-1.6.17,1,.25,1.51.41,2.51-3.84.61-5.76.87-9.62,1.28.14,1.32.21,2,.36,3.31,3.64-.38,5.46-.62,9.09-1.19.16,1,.24,1.5.39,2.5-3.68.58-5.52.82-9.22,1.21l.43,4.06c4.21-.45,6.3-.73,10.48-1.4.16,1,.24,1.5.41,2.51C225.65,278.35,222.76,278.71,217,279.21Z"/><path class="cls-2" d="M252.31,267.13l-.7-2.45c3.1-.88,4.64-1.35,7.71-2.37.75,2.28,1.13,3.41,1.88,5.69a10.67,10.67,0,0,1-2.91,2.66,15.28,15.28,0,0,1-4.28,2,12.27,12.27,0,0,1-5.08.45,7.47,7.47,0,0,1-4-1.78,7.21,7.21,0,0,1-2.17-3.82,7.43,7.43,0,0,1,.22-4.41,7.73,7.73,0,0,1,2.4-3.31,11.52,11.52,0,0,1,4.17-2,10.79,10.79,0,0,1,5.22-.4,5.26,5.26,0,0,1,3.4,2.37c-1.31.67-2,1-3.31,1.65a3.17,3.17,0,0,0-1.95-1.26,5.26,5.26,0,0,0-2.65.13,5.84,5.84,0,0,0-3.32,2.19,4.72,4.72,0,0,0-.47,4,5.09,5.09,0,0,0,2.6,3.6,5.43,5.43,0,0,0,4,.17,8.07,8.07,0,0,0,2.15-1,7.69,7.69,0,0,0,1.79-1.52l-.56-1.81C254.81,266.41,254,266.66,252.31,267.13Z"/><path class="cls-2" d="M266.84,268.24c-2-5.66-3.07-8.48-5.11-14.14,5-1.81,7.47-2.8,12.36-5l1,2.32c-3.61,1.62-5.43,2.37-9.1,3.79.48,1.24.72,1.86,1.19,3.11,3.48-1.34,5.2-2.05,8.62-3.56l1,2.31c-3.47,1.54-5.22,2.26-8.74,3.61.59,1.52.88,2.29,1.46,3.81,4-1.54,6-2.36,9.92-4.13.42.93.63,1.39,1,2.32C275.13,265.13,272.38,266.23,266.84,268.24Z"/><path class="cls-2" d="M285.18,260.54l-6.45-13.44c1.31-.63,2-1,3.27-1.62,2.23,4.42,3.34,6.63,5.58,11,3.47-1.76,5.19-2.68,8.6-4.63.5.89.76,1.33,1.26,2.21C292.61,256.86,290.15,258.15,285.18,260.54Z"/></g></g><g id="detailing"><circle class="cls-3" cx="200" cy="238" r="3"/><g id="strokes"><path class="cls-3" d="M261.5,238c0,1.1-49.9,2-51,2a2,2,0,0,1,0-4C211.6,236,261.5,236.9,261.5,238Z"/><path class="cls-3" d="M138.5,238c0,1.1,49.9,2,51,2a2,2,0,0,0,0-4C188.4,236,138.5,236.9,138.5,238Z"/></g></g><g id="smartSexyEmblem"><path id="border" class="cls-4" d="M167,83v66h66V83Zm63.13,63.13H169.87V85.87h60.26Z"/><g id="nubs"><rect class="cls-4" x="169.87" y="88.74" width="2.87" height="2.81"/><rect class="cls-4" x="227.26" y="88.74" width="2.87" height="2.81"/></g><text class="cls-5" transform="translate(172.76 112.46)">SMART<tspan class="cls-6"><tspan x="22.69" y="13.63">=</tspan></tspan><tspan x="6.81" y="27.26">SEX</tspan><tspan class="cls-7" x="37.64" y="27.26">Y</tspan></text></g></svg>